<svg xmlns="http://www.w3.org/2000/svg" viewBox="0 0 1200 700" role="img" aria-label="GBPIET campus">
  <defs>
    <linearGradient id="sky" x1="0" x2="0" y1="0" y2="1">
      <stop offset="0%" stop-color="#7cc3ef"/>
      <stop offset="100%" stop-color="#d9f1ff"/>
    </linearGradient>
    <linearGradient id="hill" x1="0" x2="0" y1="0" y2="1">
      <stop offset="0%" stop-color="#557f4b"/>
      <stop offset="100%" stop-color="#2f5c2f"/>
    </linearGradient>
  </defs>
  <rect width="1200" height="700" fill="url(#sky)"/>
  <path d="M0 360 C250 280, 420 320, 650 260 C840 210, 980 260, 1200 210 L1200 700 L0 700 Z" fill="url(#hill)"/>
  <path d="M0 430 C250 340, 500 410, 740 350 C900 310, 1030 340, 1200 300 L1200 700 L0 700 Z" fill="#6d965e" opacity="0.8"/>
  <rect x="260" y="340" width="700" height="220" rx="8" fill="#f3d0b6"/>
  <rect x="300" y="300" width="620" height="70" rx="8" fill="#d6785f"/>
  <rect x="320" y="380" width="120" height="140" fill="#ffe9d9"/>
  <rect x="500" y="380" width="120" height="140" fill="#ffe9d9"/>
  <rect x="680" y="380" width="120" height="140" fill="#ffe9d9"/>
  <rect x="860" y="380" width="70" height="140" fill="#ffe9d9"/>
  <text x="600" y="640" text-anchor="middle" font-family="Arial, sans-serif" font-size="44" font-weight="700" fill="#ffffff">GBPIET CAMPUS</text>
</svg>
